<svg width="148" height="23" viewBox="0 0 148 23" fill="none" xmlns="http://www.w3.org/2000/svg">
<path d="M12.7866 15.65C12.7866 16.55 12.6266 17.26 12.3066 17.78C11.9866 18.28 11.5166 18.75 10.8966 19.19C10.7366 19.29 10.5166 19.41 10.2366 19.55C9.95664 19.69 9.64664 19.82 9.30664 19.94C8.96664 20.06 8.60664 20.16 8.22664 20.24C7.84664 20.32 7.49664 20.36 7.17664 20.36C6.27664 20.36 5.59664 20.26 5.13664 20.06C4.67664 19.88 4.44664 19.66 4.44664 19.4C4.44664 19.12 4.52664 18.89 4.68664 18.71C4.84664 18.53 4.98664 18.43 5.10664 18.41L5.43664 18.65C5.53664 18.75 5.67664 18.86 5.85664 18.98C6.03664 19.08 6.32664 19.13 6.72664 19.13C7.10664 19.13 7.56664 19.07 8.10664 18.95C8.64664 18.81 9.15664 18.61 9.63664 18.35C10.1366 18.07 10.5566 17.73 10.8966 17.33C11.2566 16.93 11.4366 16.47 11.4366 15.95C11.4366 15.49 11.0866 15.07 10.3866 14.69C9.70664 14.29 8.62664 14.02 7.14664 13.88C6.38664 13.82 5.63664 13.73 4.89664 13.61C4.15664 13.47 3.48664 13.29 2.88664 13.07C2.30664 12.83 1.83664 12.54 1.47664 12.2C1.11664 11.84 0.936641 11.4 0.936641 10.88C0.936641 10.38 1.07664 9.9 1.35664 9.44C1.63664 8.98 1.97664 8.56 2.37664 8.18C2.79664 7.78 3.22664 7.43 3.66664 7.13C4.10664 6.83 4.47664 6.58 4.77664 6.38C5.01664 6.24 5.34664 6.06 5.76664 5.84C6.20664 5.6 6.66664 5.38 7.14664 5.18C7.64664 4.96 8.13664 4.78 8.61664 4.64C9.11664 4.48 9.53664 4.4 9.87664 4.4C10.2766 4.4 10.5466 4.51 10.6866 4.73C10.8266 4.95 10.8966 5.26 10.8966 5.66C10.8966 6 10.8566 6.36 10.7766 6.74C10.6966 7.12 10.6066 7.49 10.5066 7.85C10.4066 8.21 10.3066 8.53 10.2066 8.81C10.1266 9.07 10.0666 9.24 10.0266 9.32C9.94664 9.5 9.85664 9.62 9.75664 9.68C9.65664 9.74 9.58664 9.77 9.54664 9.77C9.46664 9.77 9.42664 9.72 9.42664 9.62C9.42664 9.56 9.43664 9.45 9.45664 9.29C9.49664 9.11 9.53664 8.9 9.57664 8.66C9.63664 8.42 9.67664 8.16 9.69664 7.88C9.73664 7.6 9.75664 7.32 9.75664 7.04C9.75664 6.6 9.73664 6.28 9.69664 6.08C9.65664 5.88 9.49664 5.78 9.21664 5.78C8.93664 5.78 8.55664 5.86 8.07664 6.02C7.59664 6.16 7.10664 6.34 6.60664 6.56C6.06664 6.8 5.53664 7.11 5.01664 7.49C4.51664 7.87 4.06664 8.26 3.66664 8.66C3.26664 9.06 2.93664 9.45 2.67664 9.83C2.43664 10.19 2.31664 10.48 2.31664 10.7C2.31664 10.94 2.47664 11.17 2.79664 11.39C3.13664 11.59 3.55664 11.77 4.05664 11.93C4.57664 12.09 5.14664 12.23 5.76664 12.35C6.38664 12.47 6.99664 12.56 7.59664 12.62C8.09664 12.68 8.64664 12.76 9.24664 12.86C9.84664 12.96 10.4066 13.12 10.9266 13.34C11.4466 13.56 11.8866 13.86 12.2466 14.24C12.6066 14.6 12.7866 15.07 12.7866 15.65ZM22.3883 6.44C22.1283 6.74 21.7583 7.04 21.2783 7.34C20.7983 7.62 20.3183 7.88 19.8383 8.12C19.3583 8.36 18.9383 8.57 18.5783 8.75C18.2183 8.91 18.0383 9.02 18.0383 9.08C18.0383 9.14 18.0783 9.32 18.1583 9.62C18.2383 9.92 18.3283 10.28 18.4283 10.7C18.5483 11.1 18.6683 11.52 18.7883 11.96C18.9083 12.4 19.0083 12.79 19.0883 13.13C19.1283 13.33 19.1783 13.59 19.2383 13.91C19.2983 14.23 19.3483 14.55 19.3883 14.87C19.4483 15.19 19.4983 15.48 19.5383 15.74C19.5783 15.98 19.5983 16.11 19.5983 16.13C19.5983 16.43 19.5483 16.74 19.4483 17.06C19.3483 17.38 19.1883 17.54 18.9683 17.54C18.8483 17.54 18.7383 17.49 18.6383 17.39C18.5383 17.29 18.4483 17.18 18.3683 17.06C18.2883 16.92 18.2283 16.79 18.1883 16.67C18.1483 16.55 18.1283 16.46 18.1283 16.4C18.1283 16.36 18.1283 16.3 18.1283 16.22C18.1483 16.14 18.1583 16.05 18.1583 15.95C18.1583 15.57 18.0983 15.02 17.9783 14.3C17.9383 14.08 17.8583 13.74 17.7383 13.28C17.6183 12.82 17.4983 12.35 17.3783 11.87C17.2383 11.31 17.0783 10.7 16.8983 10.04C16.8183 9.76 16.7683 9.62 16.7483 9.62C16.6083 9.62 16.3683 9.71 16.0283 9.89C15.7083 10.05 15.3383 10.26 14.9183 10.52C14.4983 10.76 14.0583 11.03 13.5983 11.33C13.1383 11.61 12.7083 11.88 12.3083 12.14C11.9083 12.38 11.5683 12.59 11.2883 12.77C10.9883 12.93 10.8083 13.01 10.7483 13.01C10.4883 13.01 10.2783 12.92 10.1183 12.74C9.95828 12.56 9.87828 12.36 9.87828 12.14C9.87828 12.02 10.0483 11.85 10.3883 11.63C10.7083 11.39 11.1183 11.13 11.6183 10.85C12.0983 10.57 12.6283 10.28 13.2083 9.98C13.7683 9.68 14.2883 9.41 14.7683 9.17C15.2683 8.93 15.6783 8.73 15.9983 8.57C16.3383 8.41 16.5083 8.33 16.5083 8.33C16.3283 7.41 16.1783 6.59 16.0583 5.87C15.9583 5.25 15.8583 4.68 15.7583 4.16C15.6783 3.64 15.6383 3.36 15.6383 3.32C15.6383 3.06 15.6883 2.87 15.7883 2.75C15.9083 2.61 16.0383 2.54 16.1783 2.54C16.3983 2.54 16.5383 2.69 16.5983 2.99C16.8183 4.07 17.0183 5.03 17.1983 5.87C17.3983 6.71 17.5883 7.39 17.7683 7.91C17.9483 7.87 18.2583 7.76 18.6983 7.58C19.1383 7.38 19.5983 7.17 20.0783 6.95C20.5583 6.73 20.9883 6.54 21.3683 6.38C21.7683 6.2 21.9983 6.11 22.0583 6.11C22.1783 6.11 22.2483 6.15 22.2683 6.23C22.3083 6.31 22.3483 6.38 22.3883 6.44ZM31.0984 10.85C31.0984 10.99 31.0384 11.11 30.9184 11.21C30.7984 11.29 30.6584 11.36 30.4984 11.42C30.3384 11.48 30.1784 11.53 30.0184 11.57C29.8584 11.59 29.7284 11.6 29.6284 11.6C29.3284 11.6 29.1284 11.58 29.0284 11.54C28.9284 11.5 28.8484 11.48 28.7884 11.48C28.2884 11.48 27.8884 11.52 27.5884 11.6C27.2884 11.68 27.0484 11.81 26.8684 11.99C26.7084 12.17 26.5984 12.4 26.5384 12.68C26.4984 12.94 26.4784 13.26 26.4784 13.64C26.4784 14.28 26.4984 14.79 26.5384 15.17C26.5984 15.55 26.6484 15.86 26.6884 16.1C26.7484 16.34 26.7984 16.53 26.8384 16.67C26.8984 16.79 26.9284 16.91 26.9284 17.03C26.9284 17.19 26.8384 17.36 26.6584 17.54C26.4984 17.72 26.3484 17.81 26.2084 17.81C25.9684 17.81 25.7484 17.6 25.5484 17.18C25.3684 16.74 25.2084 16.23 25.0684 15.65C24.9484 15.05 24.8484 14.46 24.7684 13.88C24.6884 13.3 24.6484 12.86 24.6484 12.56C24.6484 12.22 24.6784 11.9 24.7384 11.6C24.7984 11.28 24.8784 11.01 24.9784 10.79C25.0784 10.55 25.1884 10.36 25.3084 10.22C25.4284 10.08 25.5484 10.01 25.6684 10.01C25.7684 10.01 25.8484 10.05 25.9084 10.13C25.9684 10.19 26.0184 10.27 26.0584 10.37C26.0984 10.45 26.1384 10.53 26.1784 10.61C26.2384 10.67 26.3084 10.7 26.3884 10.7C26.5684 10.7 26.8584 10.61 27.2584 10.43C27.6584 10.25 28.1484 10.16 28.7284 10.16C29.2684 10.16 29.6684 10.18 29.9284 10.22C30.2084 10.24 30.4784 10.3 30.7384 10.4C30.7984 10.42 30.8684 10.47 30.9484 10.55C31.0484 10.61 31.0984 10.71 31.0984 10.85ZM41.8505 16.85C41.8705 16.89 41.8805 16.95 41.8805 17.03C41.8805 17.15 41.7905 17.33 41.6105 17.57C41.5505 17.65 41.4205 17.78 41.2205 17.96C41.0205 18.14 40.7505 18.32 40.4105 18.5C40.0705 18.68 39.6505 18.84 39.1505 18.98C38.6705 19.12 38.1005 19.19 37.4405 19.19C36.9805 19.19 36.5305 19.09 36.0905 18.89C35.6505 18.67 35.2605 18.36 34.9205 17.96C34.5805 17.54 34.3005 17.03 34.0805 16.43C33.8605 15.81 33.7505 15.09 33.7505 14.27C33.7505 13.49 33.8505 12.76 34.0505 12.08C34.2505 11.4 34.5005 10.8 34.8005 10.28C35.1205 9.76 35.4705 9.35 35.8505 9.05C36.2305 8.75 36.6005 8.6 36.9605 8.6C37.2805 8.6 37.6005 8.67 37.9205 8.81C38.2605 8.93 38.5605 9.09 38.8205 9.29C39.1005 9.49 39.3205 9.72 39.4805 9.98C39.6405 10.22 39.7205 10.47 39.7205 10.73C39.7205 11.03 39.5805 11.34 39.3005 11.66C39.0405 11.98 38.7205 12.28 38.3405 12.56C37.9605 12.82 37.5805 13.04 37.2005 13.22C36.8205 13.38 36.5205 13.46 36.3005 13.46C36.1805 13.46 36.0705 13.41 35.9705 13.31C35.8905 13.19 35.8505 13.05 35.8505 12.89C35.8505 12.61 35.9705 12.39 36.2105 12.23C36.4705 12.07 36.7505 11.93 37.0505 11.81C37.3505 11.67 37.6205 11.51 37.8605 11.33C38.1205 11.15 38.2505 10.9 38.2505 10.58C38.2505 10.54 38.2005 10.44 38.1005 10.28C38.0005 10.12 37.7305 10.04 37.2905 10.04C37.0905 10.04 36.8605 10.16 36.6005 10.4C36.3405 10.62 36.0905 10.93 35.8505 11.33C35.6105 11.71 35.4105 12.17 35.2505 12.71C35.0905 13.23 35.0105 13.8 35.0105 14.42C35.0105 14.94 35.1005 15.41 35.2805 15.83C35.4805 16.25 35.7305 16.61 36.0305 16.91C36.3305 17.19 36.6805 17.41 37.0805 17.57C37.4805 17.73 37.8905 17.81 38.3105 17.81C38.6105 17.81 38.9305 17.75 39.2705 17.63C39.6305 17.49 39.9605 17.35 40.2605 17.21C40.5805 17.05 40.8505 16.91 41.0705 16.79C41.3105 16.65 41.4605 16.58 41.5205 16.58C41.5805 16.58 41.6405 16.61 41.7005 16.67C41.7805 16.73 41.8305 16.79 41.8505 16.85ZM52.3095 16.85C52.3295 16.89 52.3395 16.95 52.3395 17.03C52.3395 17.15 52.2495 17.33 52.0695 17.57C52.0095 17.65 51.8795 17.78 51.6795 17.96C51.4795 18.14 51.2095 18.32 50.8695 18.5C50.5295 18.68 50.1095 18.84 49.6095 18.98C49.1295 19.12 48.5595 19.19 47.8995 19.19C47.4395 19.19 46.9895 19.09 46.5495 18.89C46.1095 18.67 45.7195 18.36 45.3795 17.96C45.0395 17.54 44.7595 17.03 44.5395 16.43C44.3195 15.81 44.2095 15.09 44.2095 14.27C44.2095 13.49 44.3095 12.76 44.5095 12.08C44.7095 11.4 44.9595 10.8 45.2595 10.28C45.5795 9.76 45.9295 9.35 46.3095 9.05C46.6895 8.75 47.0595 8.6 47.4195 8.6C47.7395 8.6 48.0595 8.67 48.3795 8.81C48.7195 8.93 49.0195 9.09 49.2795 9.29C49.5595 9.49 49.7795 9.72 49.9395 9.98C50.0995 10.22 50.1795 10.47 50.1795 10.73C50.1795 11.03 50.0395 11.34 49.7595 11.66C49.4995 11.98 49.1795 12.28 48.7995 12.56C48.4195 12.82 48.0395 13.04 47.6595 13.22C47.2795 13.38 46.9795 13.46 46.7595 13.46C46.6395 13.46 46.5295 13.41 46.4295 13.31C46.3495 13.19 46.3095 13.05 46.3095 12.89C46.3095 12.61 46.4295 12.39 46.6695 12.23C46.9295 12.07 47.2095 11.93 47.5095 11.81C47.8095 11.67 48.0795 11.51 48.3195 11.33C48.5795 11.15 48.7095 10.9 48.7095 10.58C48.7095 10.54 48.6595 10.44 48.5595 10.28C48.4595 10.12 48.1895 10.04 47.7495 10.04C47.5495 10.04 47.3195 10.16 47.0595 10.4C46.7995 10.62 46.5495 10.93 46.3095 11.33C46.0695 11.71 45.8695 12.17 45.7095 12.71C45.5495 13.23 45.4695 13.8 45.4695 14.42C45.4695 14.94 45.5595 15.41 45.7395 15.83C45.9395 16.25 46.1895 16.61 46.4895 16.91C46.7895 17.19 47.1395 17.41 47.5395 17.57C47.9395 17.73 48.3495 17.81 48.7695 17.81C49.0695 17.81 49.3895 17.75 49.7295 17.63C50.0895 17.49 50.4195 17.35 50.7195 17.21C51.0395 17.05 51.3095 16.91 51.5295 16.79C51.7695 16.65 51.9195 16.58 51.9795 16.58C52.0395 16.58 52.0995 16.61 52.1595 16.67C52.2395 16.73 52.2895 16.79 52.3095 16.85ZM62.3785 6.44C62.1185 6.74 61.7485 7.04 61.2685 7.34C60.7885 7.62 60.3085 7.88 59.8285 8.12C59.3485 8.36 58.9285 8.57 58.5685 8.75C58.2085 8.91 58.0285 9.02 58.0285 9.08C58.0285 9.14 58.0685 9.32 58.1485 9.62C58.2285 9.92 58.3185 10.28 58.4185 10.7C58.5385 11.1 58.6585 11.52 58.7785 11.96C58.8985 12.4 58.9985 12.79 59.0785 13.13C59.1185 13.33 59.1685 13.59 59.2285 13.91C59.2885 14.23 59.3385 14.55 59.3785 14.87C59.4385 15.19 59.4885 15.48 59.5285 15.74C59.5685 15.98 59.5885 16.11 59.5885 16.13C59.5885 16.43 59.5385 16.74 59.4385 17.06C59.3385 17.38 59.1785 17.54 58.9585 17.54C58.8385 17.54 58.7285 17.49 58.6285 17.39C58.5285 17.29 58.4385 17.18 58.3585 17.06C58.2785 16.92 58.2185 16.79 58.1785 16.67C58.1385 16.55 58.1185 16.46 58.1185 16.4C58.1185 16.36 58.1185 16.3 58.1185 16.22C58.1385 16.14 58.1485 16.05 58.1485 15.95C58.1485 15.57 58.0885 15.02 57.9685 14.3C57.9285 14.08 57.8485 13.74 57.7285 13.28C57.6085 12.82 57.4885 12.35 57.3685 11.87C57.2285 11.31 57.0685 10.7 56.8885 10.04C56.8085 9.76 56.7585 9.62 56.7385 9.62C56.5985 9.62 56.3585 9.71 56.0185 9.89C55.6985 10.05 55.3285 10.26 54.9085 10.52C54.4885 10.76 54.0485 11.03 53.5885 11.33C53.1285 11.61 52.6985 11.88 52.2985 12.14C51.8985 12.38 51.5585 12.59 51.2785 12.77C50.9785 12.93 50.7985 13.01 50.7385 13.01C50.4785 13.01 50.2685 12.92 50.1085 12.74C49.9485 12.56 49.8685 12.36 49.8685 12.14C49.8685 12.02 50.0385 11.85 50.3785 11.63C50.6985 11.39 51.1085 11.13 51.6085 10.85C52.0885 10.57 52.6185 10.28 53.1985 9.98C53.7585 9.68 54.2785 9.41 54.7585 9.17C55.2585 8.93 55.6685 8.73 55.9885 8.57C56.3285 8.41 56.4985 8.33 56.4985 8.33C56.3185 7.41 56.1685 6.59 56.0485 5.87C55.9485 5.25 55.8485 4.68 55.7485 4.16C55.6685 3.64 55.6285 3.36 55.6285 3.32C55.6285 3.06 55.6785 2.87 55.7785 2.75C55.8985 2.61 56.0285 2.54 56.1685 2.54C56.3885 2.54 56.5285 2.69 56.5885 2.99C56.8085 4.07 57.0085 5.03 57.1885 5.87C57.3885 6.71 57.5785 7.39 57.7585 7.91C57.9385 7.87 58.2485 7.76 58.6885 7.58C59.1285 7.38 59.5885 7.17 60.0685 6.95C60.5485 6.73 60.9785 6.54 61.3585 6.38C61.7585 6.2 61.9885 6.11 62.0485 6.11C62.1685 6.11 62.2385 6.15 62.2585 6.23C62.2985 6.31 62.3385 6.38 62.3785 6.44ZM85.8505 21.32C85.8705 21.4 85.8805 21.47 85.8805 21.53C85.8805 21.61 85.8805 21.67 85.8805 21.71C85.8805 21.91 85.8305 22.05 85.7305 22.13C85.6505 22.21 85.4805 22.25 85.2205 22.25C84.9805 22.25 84.8205 22.21 84.7405 22.13C84.6205 22.01 84.4605 21.7 84.2605 21.2C84.0605 20.7 83.8505 20.11 83.6305 19.43C83.4105 18.75 83.1905 18.02 82.9705 17.24C82.7705 16.46 82.5905 15.72 82.4305 15.02C82.2105 15.12 81.9105 15.23 81.5305 15.35C81.1505 15.45 80.7605 15.55 80.3605 15.65C79.9005 15.75 79.4205 15.86 78.9205 15.98C78.7405 16.84 78.6005 17.58 78.5005 18.2C78.4205 18.8 78.3405 19.3 78.2605 19.7C78.2005 20.08 78.1105 20.36 77.9905 20.54C77.8905 20.74 77.7205 20.84 77.4805 20.84C77.3205 20.84 77.1805 20.75 77.0605 20.57C76.9405 20.39 76.8805 20.12 76.8805 19.76C76.8805 19.58 76.9305 19.16 77.0305 18.5C77.1305 17.84 77.2405 17.11 77.3605 16.31C77.4805 15.49 77.6005 14.68 77.7205 13.88C77.8405 13.08 77.9205 12.45 77.9605 11.99C77.9805 11.75 78.0405 11.36 78.1405 10.82C78.2605 10.28 78.3805 9.73 78.5005 9.17C78.6205 8.59 78.7405 8.07 78.8605 7.61C78.9805 7.15 79.0605 6.89 79.1005 6.83C79.4205 6.09 79.6205 5.33 79.7005 4.55C79.8005 3.77 79.8705 3.06 79.9105 2.42C79.9705 1.76 80.0605 1.23 80.1805 0.829998C80.3005 0.409999 80.5505 0.199999 80.9305 0.199999C81.0305 0.199999 81.1305 0.279999 81.2305 0.44C81.3505 0.599999 81.4605 0.789999 81.5605 1.01C81.6605 1.23 81.7405 1.45 81.8005 1.67C81.8605 1.87 81.9005 2.03 81.9205 2.15C81.9405 2.27 81.9605 2.51 81.9805 2.87C82.0205 3.23 82.0505 3.63 82.0705 4.07C82.1105 4.49 82.1405 4.91 82.1605 5.33C82.2005 5.73 82.2305 6.04 82.2505 6.26C82.3105 6.92 82.4005 7.66 82.5205 8.48C82.6605 9.3 82.8005 10.07 82.9405 10.79C83.0805 11.51 83.2105 12.12 83.3305 12.62C83.4505 13.1 83.5405 13.34 83.6005 13.34C83.6805 13.34 83.7805 13.32 83.9005 13.28C84.0405 13.24 84.1705 13.22 84.2905 13.22C84.4505 13.22 84.5305 13.3 84.5305 13.46C84.5305 13.62 84.4905 13.75 84.4105 13.85C84.3305 13.95 84.2405 14.04 84.1405 14.12C84.0605 14.2 83.9805 14.27 83.9005 14.33C83.8405 14.39 83.8105 14.46 83.8105 14.54C83.8105 14.7 83.9005 15.11 84.0805 15.77L84.5605 17.54C84.6005 17.7 84.6905 17.97 84.8305 18.35C84.9705 18.73 85.1105 19.13 85.2505 19.55C85.4105 19.95 85.5505 20.32 85.6705 20.66C85.7905 21.02 85.8505 21.24 85.8505 21.32ZM79.1905 14.45C79.3105 14.45 79.5305 14.42 79.8505 14.36C80.1705 14.28 80.5005 14.19 80.8405 14.09C81.1805 13.99 81.4805 13.89 81.7405 13.79C82.0005 13.69 82.1305 13.61 82.1305 13.55C82.1305 13.49 82.0905 13.34 82.0105 13.1C81.9505 12.84 81.8705 12.52 81.7705 12.14C81.6905 11.74 81.6005 11.29 81.5005 10.79C81.4005 10.29 81.3105 9.76 81.2305 9.2C81.1905 8.84 81.1405 8.35 81.0805 7.73C81.0205 7.11 80.9605 6.5 80.9005 5.9C80.8405 5.28 80.7905 4.75 80.7505 4.31C80.7105 3.87 80.6905 3.65 80.6905 3.65C80.6905 3.65 80.6605 3.8 80.6005 4.1C80.5405 4.38 80.4705 4.7 80.3905 5.06C80.3305 5.4 80.2705 5.73 80.2105 6.05C80.1705 6.35 80.1505 6.52 80.1505 6.56V7.4C80.1505 7.44 80.1205 7.62 80.0605 7.94C80.0205 8.24 79.9605 8.63 79.8805 9.11C79.8005 9.57 79.7105 10.08 79.6105 10.64C79.5305 11.18 79.4505 11.7 79.3705 12.2C79.2905 12.7 79.2205 13.15 79.1605 13.55C79.1205 13.93 79.1005 14.19 79.1005 14.33C79.1005 14.41 79.1305 14.45 79.1905 14.45ZM105.178 21.38C105.178 21.52 105.128 21.67 105.028 21.83C104.928 21.99 104.788 22.07 104.608 22.07C104.508 22.07 104.398 22.04 104.278 21.98C103.558 21.64 102.718 21.36 101.758 21.14C100.798 20.94 99.808 20.76 98.788 20.6C97.788 20.44 96.808 20.26 95.848 20.06C94.888 19.88 94.048 19.64 93.328 19.34C93.448 19.6 93.568 19.81 93.688 19.97C93.808 20.13 93.908 20.27 93.988 20.39C94.088 20.51 94.168 20.62 94.228 20.72C94.288 20.84 94.318 20.99 94.318 21.17C94.318 21.33 94.258 21.45 94.138 21.53C94.018 21.61 93.898 21.65 93.778 21.65C93.538 21.65 93.278 21.5 92.998 21.2C92.738 20.9 92.468 20.52 92.188 20.06C91.908 19.6 91.628 19.09 91.348 18.53C91.088 17.95 90.848 17.39 90.628 16.85C90.408 16.31 90.218 15.82 90.058 15.38C89.898 14.92 89.788 14.57 89.728 14.33L88.408 9.05C88.408 8.99 88.418 8.91 88.438 8.81C88.478 8.71 88.558 8.61 88.678 8.51C88.598 8.35 88.558 8.18 88.558 8C88.558 7.44 88.878 6.93 89.518 6.47C90.158 5.99 90.928 5.59 91.828 5.27C92.748 4.93 93.708 4.67 94.708 4.49C95.708 4.31 96.558 4.22 97.258 4.22C97.458 4.22 97.758 4.24 98.158 4.28C98.558 4.3 98.948 4.37 99.328 4.49C99.728 4.61 100.068 4.8 100.348 5.06C100.648 5.3 100.798 5.64 100.798 6.08C100.798 6.5 100.578 6.98 100.138 7.52C99.718 8.06 99.188 8.63 98.548 9.23C97.908 9.83 97.218 10.45 96.478 11.09C95.738 11.71 95.048 12.34 94.408 12.98C93.768 13.6 93.228 14.21 92.788 14.81C92.368 15.39 92.158 15.93 92.158 16.43C92.158 16.81 92.318 17.15 92.638 17.45C92.978 17.73 93.398 17.98 93.898 18.2C94.398 18.42 94.938 18.61 95.518 18.77C96.118 18.93 96.678 19.06 97.198 19.16C97.738 19.26 98.198 19.34 98.578 19.4C98.978 19.44 99.218 19.46 99.298 19.46C99.558 19.46 100.008 19.49 100.648 19.55C101.288 19.61 101.938 19.72 102.598 19.88C103.278 20.02 103.878 20.21 104.398 20.45C104.918 20.69 105.178 21 105.178 21.38ZM99.388 6.11C99.388 5.97 99.318 5.85 99.178 5.75C99.038 5.63 98.848 5.54 98.608 5.48C98.388 5.4 98.138 5.35 97.858 5.33C97.598 5.29 97.338 5.27 97.078 5.27C96.678 5.27 96.198 5.33 95.638 5.45C95.078 5.57 94.508 5.72 93.928 5.9C93.368 6.08 92.848 6.26 92.368 6.44C91.888 6.62 91.538 6.77 91.318 6.89C90.898 7.13 90.488 7.4 90.088 7.7C89.688 7.98 89.488 8.26 89.488 8.54C89.488 8.58 89.518 8.62 89.578 8.66C89.638 8.7 89.668 8.77 89.668 8.87C89.668 8.99 89.728 9.3 89.848 9.8C89.968 10.28 90.108 10.83 90.268 11.45C90.428 12.05 90.598 12.65 90.778 13.25C90.978 13.85 91.158 14.33 91.318 14.69C92.138 13.53 93.018 12.52 93.958 11.66C94.918 10.78 95.798 10.01 96.598 9.35C97.398 8.67 98.058 8.08 98.578 7.58C99.118 7.06 99.388 6.57 99.388 6.11ZM120.53 3.53C120.53 3.67 120.47 3.79 120.35 3.89C120.25 3.97 120.15 4.01 120.05 4.01C119.87 4.01 119.58 4.03 119.18 4.07C118.8 4.11 118.38 4.16 117.92 4.22C117.48 4.26 117.04 4.31 116.6 4.37C116.18 4.41 115.84 4.45 115.58 4.49C115.5 4.49 115.33 4.5 115.07 4.52C114.83 4.54 114.55 4.57 114.23 4.61C113.93 4.63 113.62 4.66 113.3 4.7C113 4.74 112.76 4.77 112.58 4.79C112.36 4.83 112.04 4.9 111.62 5C111.2 5.1 110.82 5.2 110.48 5.3C110.36 5.34 110.25 5.37 110.15 5.39C110.05 5.41 109.97 5.43 109.91 5.45C109.83 5.47 109.76 5.49 109.7 5.51L111.32 11.24C111.38 11.42 111.48 11.71 111.62 12.11C111.76 12.51 111.92 12.95 112.1 13.43C112.3 13.91 112.5 14.41 112.7 14.93C112.92 15.45 113.11 15.93 113.27 16.37C113.37 16.63 113.48 16.95 113.6 17.33C113.72 17.71 113.83 18.1 113.93 18.5C114.03 18.88 114.11 19.23 114.17 19.55C114.25 19.87 114.29 20.09 114.29 20.21C114.29 20.49 114.21 20.78 114.05 21.08C113.89 21.4 113.68 21.56 113.42 21.56C113.18 21.56 113.06 21.39 113.06 21.05V20.84C113.06 20.78 113.06 20.71 113.06 20.63C113.08 20.55 113.09 20.46 113.09 20.36C113.09 20.2 113.03 19.93 112.91 19.55C112.79 19.15 112.64 18.71 112.46 18.23C112.28 17.73 112.08 17.21 111.86 16.67C111.66 16.11 111.46 15.59 111.26 15.11C111.08 14.61 110.92 14.19 110.78 13.85C110.64 13.49 110.55 13.25 110.51 13.13C110.45 12.97 110.37 12.74 110.27 12.44C110.19 12.14 110.09 11.8 109.97 11.42C109.85 11.04 109.72 10.64 109.58 10.22C109.46 9.78 109.34 9.35 109.22 8.93C108.92 7.95 108.59 6.88 108.23 5.72C108.13 5.74 107.8 5.79 107.24 5.87C106.7 5.93 106.09 6 105.41 6.08C104.73 6.16 104.08 6.24 103.46 6.32C102.84 6.38 102.42 6.41 102.2 6.41C101.7 6.41 101.38 6.33 101.24 6.17C101.1 6.01 101.02 5.81 101 5.57C101 5.41 101.04 5.25 101.12 5.09C101.2 4.91 101.31 4.82 101.45 4.82C101.61 4.82 101.74 4.85 101.84 4.91C101.92 4.95 102.03 4.97 102.17 4.97C102.21 4.97 102.41 4.95 102.77 4.91C103.15 4.87 103.59 4.82 104.09 4.76C104.61 4.7 105.14 4.64 105.68 4.58C106.24 4.52 106.73 4.47 107.15 4.43C107.25 4.43 107.35 4.43 107.45 4.43C107.57 4.41 107.68 4.39 107.78 4.37C107.88 4.35 107.98 4.34 108.08 4.34C108.08 4.28 108.11 4.15 108.17 3.95C108.25 3.73 108.33 3.62 108.41 3.62C108.61 3.62 108.77 3.7 108.89 3.86C109.03 4 109.15 4.1 109.25 4.16C109.39 4.14 109.6 4.1 109.88 4.04C110.18 3.96 110.49 3.89 110.81 3.83C111.15 3.77 111.47 3.72 111.77 3.68C112.09 3.62 112.36 3.58 112.58 3.56L116.09 3.35C116.39 3.33 116.73 3.31 117.11 3.29C117.51 3.25 117.9 3.21 118.28 3.17C118.66 3.13 118.99 3.1 119.27 3.08C119.55 3.04 119.74 3.02 119.84 3.02C120.02 3.04 120.18 3.1 120.32 3.2C120.46 3.3 120.53 3.41 120.53 3.53ZM118.542 6.2C118.542 6.24 118.472 6.32 118.332 6.44C118.192 6.56 118.022 6.69 117.822 6.83C117.642 6.95 117.452 7.06 117.252 7.16C117.052 7.26 116.892 7.31 116.772 7.31C116.692 7.31 116.582 7.31 116.442 7.31C116.322 7.29 116.192 7.25 116.052 7.19C115.932 7.13 115.822 7.05 115.722 6.95C115.622 6.83 115.572 6.68 115.572 6.5C115.572 6.22 115.672 5.96 115.872 5.72C116.072 5.46 116.332 5.33 116.652 5.33C116.712 5.33 116.842 5.36 117.042 5.42C117.262 5.46 117.482 5.52 117.702 5.6C117.922 5.68 118.112 5.77 118.272 5.87C118.452 5.97 118.542 6.08 118.542 6.2ZM119.532 17.42C119.532 17.56 119.422 17.68 119.202 17.78C119.002 17.88 118.852 17.93 118.752 17.93C118.552 17.93 118.372 17.8 118.212 17.54C118.052 17.28 117.912 16.98 117.792 16.64C117.672 16.3 117.572 15.98 117.492 15.68C117.412 15.36 117.352 15.14 117.312 15.02C117.252 14.82 117.172 14.58 117.072 14.3C116.972 14.02 116.872 13.75 116.772 13.49C116.692 13.23 116.622 13 116.562 12.8C116.502 12.6 116.472 12.49 116.472 12.47C116.472 12.19 116.522 11.93 116.622 11.69C116.742 11.45 116.882 11.33 117.042 11.33C117.222 11.33 117.412 11.47 117.612 11.75C117.812 12.03 118.002 12.39 118.182 12.83C118.382 13.25 118.562 13.72 118.722 14.24C118.882 14.74 119.022 15.22 119.142 15.68C119.262 16.12 119.352 16.51 119.412 16.85C119.492 17.17 119.532 17.36 119.532 17.42ZM128.18 16.04C128.18 16.38 128.06 16.68 127.82 16.94C127.6 17.18 127.31 17.39 126.95 17.57C126.61 17.73 126.23 17.86 125.81 17.96C125.39 18.06 124.99 18.14 124.61 18.2C124.23 18.24 123.89 18.27 123.59 18.29C123.31 18.29 123.13 18.29 123.05 18.29C122.61 18.29 122.27 18.22 122.03 18.08C121.79 17.94 121.67 17.69 121.67 17.33C121.67 17.21 121.68 17.11 121.7 17.03C121.72 16.93 121.8 16.88 121.94 16.88C122 16.88 122.1 16.9 122.24 16.94C122.38 16.96 122.49 16.97 122.57 16.97C122.65 16.97 122.9 16.96 123.32 16.94C123.76 16.9 124.22 16.84 124.7 16.76C125.2 16.68 125.64 16.57 126.02 16.43C126.42 16.27 126.62 16.07 126.62 15.83C126.62 15.79 126.41 15.67 125.99 15.47C125.59 15.25 124.98 14.89 124.16 14.39C123.52 13.99 123.07 13.59 122.81 13.19C122.55 12.77 122.42 12.21 122.42 11.51C122.42 11.07 122.51 10.71 122.69 10.43C122.89 10.15 123.15 9.93 123.47 9.77C123.81 9.61 124.19 9.5 124.61 9.44C125.05 9.36 125.51 9.32 125.99 9.32C126.03 9.32 126.15 9.34 126.35 9.38C126.57 9.42 126.8 9.49 127.04 9.59C127.28 9.67 127.49 9.78 127.67 9.92C127.87 10.04 127.97 10.18 127.97 10.34C127.97 10.38 127.93 10.44 127.85 10.52C127.79 10.6 127.68 10.75 127.52 10.97C127.46 10.95 127.35 10.92 127.19 10.88C127.05 10.84 126.88 10.8 126.68 10.76C126.5 10.7 126.31 10.66 126.11 10.64C125.91 10.6 125.75 10.58 125.63 10.58C125.11 10.58 124.69 10.68 124.37 10.88C124.05 11.06 123.89 11.42 123.89 11.96C123.89 12.22 123.99 12.46 124.19 12.68C124.41 12.9 124.68 13.11 125 13.31C125.32 13.49 125.66 13.68 126.02 13.88C126.4 14.06 126.75 14.26 127.07 14.48C127.39 14.7 127.65 14.94 127.85 15.2C128.07 15.44 128.18 15.72 128.18 16.04ZM138.697 6.44C138.437 6.74 138.067 7.04 137.587 7.34C137.107 7.62 136.627 7.88 136.147 8.12C135.667 8.36 135.247 8.57 134.887 8.75C134.527 8.91 134.347 9.02 134.347 9.08C134.347 9.14 134.387 9.32 134.467 9.62C134.547 9.92 134.637 10.28 134.737 10.7C134.857 11.1 134.977 11.52 135.097 11.96C135.217 12.4 135.317 12.79 135.397 13.13C135.437 13.33 135.487 13.59 135.547 13.91C135.607 14.23 135.657 14.55 135.697 14.87C135.757 15.19 135.807 15.48 135.847 15.74C135.887 15.98 135.907 16.11 135.907 16.13C135.907 16.43 135.857 16.74 135.757 17.06C135.657 17.38 135.497 17.54 135.277 17.54C135.157 17.54 135.047 17.49 134.947 17.39C134.847 17.29 134.757 17.18 134.677 17.06C134.597 16.92 134.537 16.79 134.497 16.67C134.457 16.55 134.437 16.46 134.437 16.4C134.437 16.36 134.437 16.3 134.437 16.22C134.457 16.14 134.467 16.05 134.467 15.95C134.467 15.57 134.407 15.02 134.287 14.3C134.247 14.08 134.167 13.74 134.047 13.28C133.927 12.82 133.807 12.35 133.687 11.87C133.547 11.31 133.387 10.7 133.207 10.04C133.127 9.76 133.077 9.62 133.057 9.62C132.917 9.62 132.677 9.71 132.337 9.89C132.017 10.05 131.647 10.26 131.227 10.52C130.807 10.76 130.367 11.03 129.907 11.33C129.447 11.61 129.017 11.88 128.617 12.14C128.217 12.38 127.877 12.59 127.597 12.77C127.297 12.93 127.117 13.01 127.057 13.01C126.797 13.01 126.587 12.92 126.427 12.74C126.267 12.56 126.187 12.36 126.187 12.14C126.187 12.02 126.357 11.85 126.697 11.63C127.017 11.39 127.427 11.13 127.927 10.85C128.407 10.57 128.937 10.28 129.517 9.98C130.077 9.68 130.597 9.41 131.077 9.17C131.577 8.93 131.987 8.73 132.307 8.57C132.647 8.41 132.817 8.33 132.817 8.33C132.637 7.41 132.487 6.59 132.367 5.87C132.267 5.25 132.167 4.68 132.067 4.16C131.987 3.64 131.947 3.36 131.947 3.32C131.947 3.06 131.997 2.87 132.097 2.75C132.217 2.61 132.347 2.54 132.487 2.54C132.707 2.54 132.847 2.69 132.907 2.99C133.127 4.07 133.327 5.03 133.507 5.87C133.707 6.71 133.897 7.39 134.077 7.91C134.257 7.87 134.567 7.76 135.007 7.58C135.447 7.38 135.907 7.17 136.387 6.95C136.867 6.73 137.297 6.54 137.677 6.38C138.077 6.2 138.307 6.11 138.367 6.11C138.487 6.11 138.557 6.15 138.577 6.23C138.617 6.31 138.657 6.38 138.697 6.44ZM147.077 16.04C147.077 16.38 146.957 16.68 146.717 16.94C146.497 17.18 146.207 17.39 145.847 17.57C145.507 17.73 145.127 17.86 144.707 17.96C144.287 18.06 143.887 18.14 143.507 18.2C143.127 18.24 142.787 18.27 142.487 18.29C142.207 18.29 142.027 18.29 141.947 18.29C141.507 18.29 141.167 18.22 140.927 18.08C140.687 17.94 140.567 17.69 140.567 17.33C140.567 17.21 140.577 17.11 140.597 17.03C140.617 16.93 140.697 16.88 140.837 16.88C140.897 16.88 140.997 16.9 141.137 16.94C141.277 16.96 141.387 16.97 141.467 16.97C141.547 16.97 141.797 16.96 142.217 16.94C142.657 16.9 143.117 16.84 143.597 16.76C144.097 16.68 144.537 16.57 144.917 16.43C145.317 16.27 145.517 16.07 145.517 15.83C145.517 15.79 145.307 15.67 144.887 15.47C144.487 15.25 143.877 14.89 143.057 14.39C142.417 13.99 141.967 13.59 141.707 13.19C141.447 12.77 141.317 12.21 141.317 11.51C141.317 11.07 141.407 10.71 141.587 10.43C141.787 10.15 142.047 9.93 142.367 9.77C142.707 9.61 143.087 9.5 143.507 9.44C143.947 9.36 144.407 9.32 144.887 9.32C144.927 9.32 145.047 9.34 145.247 9.38C145.467 9.42 145.697 9.49 145.937 9.59C146.177 9.67 146.387 9.78 146.567 9.92C146.767 10.04 146.867 10.18 146.867 10.34C146.867 10.38 146.827 10.44 146.747 10.52C146.687 10.6 146.577 10.75 146.417 10.97C146.357 10.95 146.247 10.92 146.087 10.88C145.947 10.84 145.777 10.8 145.577 10.76C145.397 10.7 145.207 10.66 145.007 10.64C144.807 10.6 144.647 10.58 144.527 10.58C144.007 10.58 143.587 10.68 143.267 10.88C142.947 11.06 142.787 11.42 142.787 11.96C142.787 12.22 142.887 12.46 143.087 12.68C143.307 12.9 143.577 13.11 143.897 13.31C144.217 13.49 144.557 13.68 144.917 13.88C145.297 14.06 145.647 14.26 145.967 14.48C146.287 14.7 146.547 14.94 146.747 15.2C146.967 15.44 147.077 15.72 147.077 16.04Z" fill="#A26A5E"/>
</svg>
